<svg xmlns="http://www.w3.org/2000/svg" version="1.1" xmlns:xlink="http://www.w3.org/1999/xlink" width="1500" height="1500" viewBox="0 0 1500 1500"><rect width="1500" height="1500" x="0" y="0" id="background" stroke="transparent" fill="#ffffff"></rect><svg xml:space="preserve" width="1000" height="1000" data-version="2" data-id="lg_lyec6wJVQQh8ANI7mh" viewBox="0 0 563 133" x="250" y="250"><rect width="100%" height="100%" fill="transparent"></rect><path fill="#ea3c12" d="M181.395 23.952q0 2.51-.88 4.35-.89 1.84-2.21 3.16-2.35 2.29-5.87 3.61 5.67 1.09 8.32 3.38 3.61 3.16 3.61 9.41 0 5.61-4.32 9.32-4.74 4.09-13.28 4.09h-22.36v-2.74l4.89-.74v-41.64l-4.89-.74v-2.74h21.49q7.61 0 11.67 3.09 3.83 2.9 3.83 8.19m-15.34 13.5h-10.7v19.95h9.12q10.7 0 12.96-5.83.71-1.84.71-4.01 0-2.18-.76-4-.76-1.82-2.27-3.17-3.29-2.94-9.06-2.94m-.9-20.88h-9.8v17.37h9.19q6.83 0 9.54-4.64 1.03-1.74 1.03-4.45 0-4.32-2.39-6.3-2.38-1.98-7.57-1.98m23.69-1.16v-2.74h15.79v2.74l-4.87.74v41.64l4.87.74v2.74h-15.79v-2.74l4.96-.74v-41.64zm58.52 8.54q0 2.51-.89 4.35-.88 1.84-2.2 3.16-2.36 2.29-5.87 3.61 5.67 1.09 8.31 3.38 3.61 3.16 3.61 9.41 0 5.61-4.31 9.32-4.74 4.09-13.28 4.09h-22.37v-2.74l4.9-.74v-41.64l-4.9-.74v-2.74h21.5q7.6 0 11.66 3.09 3.84 2.9 3.84 8.19m-15.34 13.5h-10.7v19.95h9.12q10.7 0 12.96-5.83.7-1.84.7-4.01 0-2.18-.75-4-.76-1.82-2.27-3.17-3.29-2.94-9.06-2.94m-.9-20.88h-9.8v17.37h9.18q6.84 0 9.54-4.64 1.04-1.74 1.04-4.45 0-4.32-2.39-6.3-2.38-1.98-7.57-1.98m22.91-3.9h15.79v2.74l-4.83.74v41.25h17.66l1.9-7.22h2.64l-.29 11.09h-32.87v-2.74l4.9-.74v-41.64l-4.9-.74zm39.25 2.74v-2.74h15.79v2.74l-4.86.74v41.64l4.86.74v2.74h-15.79v-2.74l4.96-.74v-41.64zm27.77 39.61q-3.15-3.26-4.77-7.69-1.63-4.43-1.63-8.96 0-4.53.9-8.01.9-3.48 2.5-6.35 1.59-2.86 3.83-5.12 2.24-2.26 4.92-3.8 5.44-3.16 11.66-3.16t10.8 1.82q4.58 1.82 7.7 5.01 6.35 6.48 6.35 17.02 0 11.73-7.12 19.14-3.29 3.42-7.66 5.25-4.36 1.84-9.76 1.84-5.4 0-9.99-1.87t-7.73-5.12m4.72-33.26q-2.36 2.74-3.63 6.38-1.27 3.64-1.27 7.12t.51 6.25q.52 2.77 1.53 5.24 1.02 2.47 2.55 4.56 1.53 2.1 3.56 3.61 4.32 3.22 10.18 3.22 8.03 0 13.06-5.44 4.93-5.35 4.93-13.96 0-9.47-4.29-15.76-4.9-7.18-14.31-7.18-7.76 0-12.82 5.96m61.16 39.51h-17.3v-2.74l4.9-.74v-41.64l-4.9-.74v-2.74h15.88q13.73 0 17.54 7.41 1.41 2.74 1.41 6.59 0 3.85-1.27 6.82-1.27 2.96-3.79 5.03-5.18 4.31-14.95 4.31h-3.87v14.96l6.35.74zm-2.19-44.7h-4.16v22.85h4.77q6.42 0 9.8-3.42 3-3.09 3-8.34 0-5.42-2.87-8.09-3.19-3-10.54-3m24.27-1.16v-2.74h15.79v2.74l-4.93.74v18.4h26.91v-18.4l-4.9-.74v-2.74h15.79v2.74l-4.87.74v41.64l4.87.74v2.74h-15.79v-2.74l4.9-.74v-19.37h-26.91v19.37l4.93.74v2.74h-15.79v-2.74l4.9-.74v-41.64zm54.94 0v-2.74h15.79v2.74l-4.86.74v41.64l4.86.74v2.74h-15.79v-2.74l4.97-.74v-41.64zm21.21-2.74h15.79v2.74l-4.83.74v41.25h17.66l1.9-7.22h2.64l-.29 11.09h-32.87v-2.74l4.9-.74v-41.64l-4.9-.74zm62.58 28.68-.96-3.38h-11.86v19.43h17.95l2.32-5.7h2.45l-1.07 9.57h-32.61v-2.74l4.9-.74v-41.64l-4.9-.74v-2.74h31.2l.74 9.57h-2.84l-1.74-5.67h-16.4v17.53h11.86l.96-3.41h2.29v10.66zm-371.89 75.11v-2.74l4.45-.74-5.1-12.54h-19.33l-5.06 12.54 4.54.74v2.74h-13.82v-2.74l5.09-.74 16.92-41.83-1.36-3.19 5.23-2.19 19.27 47.21 5.19.74v2.74zm-10.28-40.61-8.19 20.69h16.41zm29.97-7.99h41.06l.77 10.34h-2.9l-1.64-6.44h-13.77v41.22l7.09.74v2.74h-20.14v-2.74l7.03-.74v-41.22h-13.7l-1.74 6.44h-2.83zm47.6 0h15.79v2.74l-4.84.74v41.25h17.66l1.91-7.22h2.64l-.29 11.09h-32.87v-2.74l4.9-.74v-41.64l-4.9-.74zm70.25 48.6v-2.74l4.45-.74-5.09-12.54h-19.34l-5.06 12.54 4.55.74v2.74h-13.83v-2.74l5.09-.74 16.92-41.83-1.35-3.19 5.22-2.19 19.27 47.21 5.19.74v2.74zm-10.28-40.61-8.18 20.69h16.4zm44.73 37.51q2.39 0 4.34-.46 1.95-.47 3.36-1.47 3.03-2.09 3.03-6.12 0-3.42-2.22-5.61-2.35-2.26-7.62-4.56t-8.03-4.13q-2.75-1.82-4.33-3.69-2.87-3.28-2.87-7.96 0-5.41 4.67-8.92 4.35-3.32 10.54-3.32 4.87 0 9.73 1.77 2.03.81 3.68 1.77l-1.13 8.61h-2.71q0-4.45-2.41-6.46-2.42-2.02-7-2.02-6.31 0-8.63 4.13-.75 1.35-.75 3.03 0 1.67.49 3.01.48 1.34 1.87 2.63 2.7 2.61 10.18 5.73 10.44 4.45 12.18 10.51.52 1.9.52 4.04 0 2.15-.73 4.06-.72 1.92-1.98 3.42t-2.92 2.59q-1.65 1.1-3.52 1.81-8.29 3.22-17.41-.52-3.32-1.38-5.86-3.38l1.35-9.25h2.74q0 6.48 4.09 9.02 2.81 1.74 7.35 1.74M90.616 129.78H6.872a1.516 1.516 0 0 1-1.516-1.516V30.072a1.516 1.516 0 0 1 3.032 0v96.66H89.1V34.62a1.516 1.516 0 0 1 3.032 0v93.629a1.516 1.516 0 0 1-1.516 1.516"></path><path fill="#ea3c12" d="M90.616 36.152h-.091L6.796 31.604a1.516 1.516 0 0 1-1.44-1.516v-20.8a1.516 1.516 0 0 1 1.41-1.516L90.51 1.708a1.516 1.516 0 0 1 1.622 1.516v31.412a1.516 1.516 0 0 1-1.516 1.516M8.388 28.647 89.1 33.044V4.846L8.388 10.698z"></path><path fill="#ea3c12" d="M79.018 24.236H6.87a1.516 1.516 0 0 1 0-3.032h72.162a1.516 1.516 0 0 1 0 3.032m-15.28-7.596H6.872a1.516 1.516 0 1 1 0-3.031h56.88a1.516 1.516 0 1 1 0 3.032M48.744 68.215c-7.08 0-13.887-3.032-18.677-8.277a1.519 1.519 0 0 1 2.244-2.047 22.285 22.285 0 0 0 16.433 7.277c6.23 0 12.219-2.638 16.433-7.277a1.516 1.516 0 0 1 2.244 2.031 25.317 25.317 0 0 1-18.677 8.308m17.554 24.059a1.516 1.516 0 0 1-1.122-.5c-4.214-4.624-10.202-7.277-16.433-7.277-6.23 0-12.219 2.653-16.433 7.277a1.516 1.516 0 0 1-2.244-2.032c4.79-5.275 11.597-8.292 18.677-8.292s13.887 3.032 18.677 8.292a1.516 1.516 0 0 1-1.122 2.532"></path><path fill="#ea3c12" d="M48.744 100.066c-13.905-.05-25.169-11.306-25.226-25.211 0-13.902 11.31-25.226 25.226-25.226a25.257 25.257 0 0 1 18.677 42.175 25.317 25.317 0 0 1-18.677 8.262m0-47.42a22.225 22.225 0 0 0-16.433 37.111 22.285 22.285 0 0 0 16.433 7.277c12.242-.024 22.16-9.937 22.194-22.179 0-12.234-9.96-22.194-22.194-22.194"></path><path fill="#ea3c12" d="M48.744 100.066c-7.898 0-14.099-11.067-14.099-25.226s6.216-25.226 14.099-25.226S62.843 60.696 62.843 74.84c0 14.144-6.216 25.226-14.099 25.226m0-47.42c-6.003 0-11.067 10.157-11.067 22.194s5.064 22.194 11.067 22.194S59.811 86.877 59.811 74.84s-5.064-22.194-11.067-22.194"></path><path fill="#ea3c12" d="M48.744 100.066a1.516 1.516 0 0 1-1.516-1.516V51.13a1.516 1.516 0 1 1 3.032 0v47.42a1.516 1.516 0 0 1-1.516 1.516"></path><path fill="#ea3c12" d="M72.454 76.371h-47.42a1.516 1.516 0 1 1 0-3.032h47.42a1.516 1.516 0 0 1 0 3.032"></path></svg></svg>